<svg width="22" height="23" viewBox="0 0 22 23" fill="none" xmlns="http://www.w3.org/2000/svg">
<path d="M20.123 8.41964C20.0653 8.24983 19.9592 8.10061 19.8177 7.99043C19.6763 7.88024 19.5056 7.81389 19.3268 7.79959L14.0977 7.38408L11.8349 2.37506C11.7628 2.21373 11.6456 2.07671 11.4974 1.98052C11.3492 1.88434 11.1763 1.8331 10.9996 1.83301C10.8229 1.83291 10.6499 1.88395 10.5016 1.97998C10.3533 2.076 10.2359 2.2129 10.1637 2.37415L7.90085 7.38408L2.6717 7.79959C2.49601 7.8135 2.32805 7.87774 2.18791 7.98462C2.04777 8.0915 1.94139 8.23648 1.8815 8.40224C1.8216 8.56799 1.81073 8.74749 1.85018 8.91926C1.88962 9.09103 1.97772 9.2478 2.10393 9.37081L5.96824 13.1379L4.60156 19.0559C4.56006 19.235 4.57336 19.4225 4.63974 19.594C4.70611 19.7655 4.82249 19.913 4.97378 20.0175C5.12506 20.1221 5.30427 20.1787 5.48815 20.1801C5.67202 20.1815 5.85207 20.1276 6.00493 20.0254L10.9993 16.6958L15.9936 20.0254C16.1498 20.1291 16.3341 20.1825 16.5216 20.1784C16.7091 20.1743 16.8908 20.1129 17.0424 20.0024C17.1939 19.8919 17.308 19.7377 17.3692 19.5604C17.4305 19.3832 17.436 19.1914 17.3851 19.0109L15.7074 13.1406L19.868 9.39649C20.1404 9.15067 20.2404 8.76727 20.123 8.41964Z" fill="#F3CD03"/>
</svg>
