<svg width="23" height="23" viewBox="0 0 23 23" fill="none" xmlns="http://www.w3.org/2000/svg">
<path d="M20.6367 8.41964C20.579 8.24983 20.4729 8.10061 20.3314 7.99043C20.1899 7.88024 20.0193 7.81389 19.8405 7.79959L14.6114 7.38408L12.3485 2.37506C12.2765 2.21373 12.1593 2.07671 12.011 1.98052C11.8628 1.88434 11.6899 1.8331 11.5132 1.83301C11.3365 1.83291 11.1636 1.88395 11.0153 1.97998C10.8669 2.076 10.7496 2.2129 10.6773 2.37415L8.41452 7.38408L3.18537 7.79959C3.00968 7.8135 2.84172 7.87774 2.70158 7.98462C2.56144 8.0915 2.45506 8.23648 2.39517 8.40224C2.33527 8.56799 2.3244 8.74749 2.36385 8.91926C2.4033 9.09103 2.49139 9.2478 2.61761 9.37081L6.48191 13.1379L5.11523 19.0559C5.07374 19.235 5.08704 19.4225 5.15341 19.594C5.21978 19.7655 5.33616 19.913 5.48745 20.0175C5.63874 20.1221 5.81794 20.1787 6.00182 20.1801C6.18569 20.1815 6.36574 20.1276 6.5186 20.0254L11.5129 16.6958L16.5073 20.0254C16.6635 20.1291 16.8478 20.1825 17.0353 20.1784C17.2228 20.1743 17.4045 20.1129 17.556 20.0024C17.7076 19.8919 17.8217 19.7377 17.8829 19.5604C17.9442 19.3832 17.9497 19.1914 17.8987 19.0109L16.2211 13.1406L20.3817 9.39649C20.6541 9.15067 20.7541 8.76727 20.6367 8.41964Z" fill="#F3CD03"/>
</svg>
