<svg width="23" height="23" viewBox="0 0 23 23" fill="none" xmlns="http://www.w3.org/2000/svg">
<path d="M20.623 8.41964C20.5653 8.24983 20.4592 8.10061 20.3177 7.99043C20.1763 7.88024 20.0056 7.81389 19.8268 7.79959L14.5977 7.38408L12.3349 2.37506C12.2628 2.21373 12.1456 2.07671 11.9974 1.98052C11.8492 1.88434 11.6763 1.8331 11.4996 1.83301C11.3229 1.83291 11.1499 1.88395 11.0016 1.97998C10.8533 2.076 10.7359 2.2129 10.6637 2.37415L8.40085 7.38408L3.1717 7.79959C2.99601 7.8135 2.82805 7.87774 2.68791 7.98462C2.54777 8.0915 2.44139 8.23648 2.3815 8.40224C2.3216 8.56799 2.31073 8.74749 2.35018 8.91926C2.38962 9.09103 2.47772 9.2478 2.60393 9.37081L6.46824 13.1379L5.10156 19.0559C5.06006 19.235 5.07336 19.4225 5.13974 19.594C5.20611 19.7655 5.32249 19.913 5.47378 20.0175C5.62506 20.1221 5.80427 20.1787 5.98815 20.1801C6.17202 20.1815 6.35207 20.1276 6.50493 20.0254L11.4993 16.6958L16.4936 20.0254C16.6498 20.1291 16.8341 20.1825 17.0216 20.1784C17.2091 20.1743 17.3908 20.1129 17.5424 20.0024C17.6939 19.8919 17.808 19.7377 17.8692 19.5604C17.9305 19.3832 17.936 19.1914 17.8851 19.0109L16.2074 13.1406L20.368 9.39649C20.6404 9.15067 20.7404 8.76727 20.623 8.41964Z" fill="#F3CD03"/>
</svg>
