<svg width="23" height="23" viewBox="0 0 23 23" fill="none" xmlns="http://www.w3.org/2000/svg">
<path d="M20.6118 8.41964C20.5541 8.24983 20.448 8.10061 20.3065 7.99043C20.165 7.88024 19.9944 7.81389 19.8156 7.79959L14.5865 7.38408L12.3236 2.37506C12.2516 2.21373 12.1344 2.07671 11.9861 1.98052C11.8379 1.88434 11.665 1.8331 11.4883 1.83301C11.3116 1.83291 11.1387 1.88395 10.9904 1.97998C10.842 2.076 10.7247 2.2129 10.6524 2.37415L8.38962 7.38408L3.16047 7.79959C2.98478 7.8135 2.81682 7.87774 2.67668 7.98462C2.53654 8.0915 2.43016 8.23648 2.37027 8.40224C2.31037 8.56799 2.2995 8.74749 2.33895 8.91926C2.37839 9.09103 2.46649 9.2478 2.5927 9.37081L6.45701 13.1379L5.09033 19.0559C5.04883 19.235 5.06213 19.4225 5.12851 19.594C5.19488 19.7655 5.31126 19.913 5.46255 20.0175C5.61383 20.1221 5.79304 20.1787 5.97692 20.1801C6.16079 20.1815 6.34084 20.1276 6.4937 20.0254L11.488 16.6958L16.4824 20.0254C16.6386 20.1291 16.8229 20.1825 17.0104 20.1784C17.1979 20.1743 17.3796 20.1129 17.5311 20.0024C17.6827 19.8919 17.7968 19.7377 17.858 19.5604C17.9193 19.3832 17.9248 19.1914 17.8738 19.0109L16.1962 13.1406L20.3568 9.39649C20.6292 9.15067 20.7292 8.76727 20.6118 8.41964Z" fill="#F3CD03"/>
</svg>
