<svg width="23" height="23" viewBox="0 0 23 23" fill="none" xmlns="http://www.w3.org/2000/svg">
<path d="M21.1118 8.41964C21.0541 8.24983 20.948 8.10061 20.8065 7.99043C20.665 7.88024 20.4944 7.81389 20.3156 7.79959L15.0865 7.38408L12.8236 2.37506C12.7516 2.21373 12.6344 2.07671 12.4861 1.98052C12.3379 1.88434 12.165 1.8331 11.9883 1.83301C11.8116 1.83291 11.6387 1.88395 11.4904 1.97998C11.342 2.076 11.2247 2.2129 11.1524 2.37415L8.88962 7.38408L3.66047 7.79959C3.48478 7.8135 3.31682 7.87774 3.17668 7.98462C3.03654 8.0915 2.93016 8.23648 2.87027 8.40224C2.81037 8.56799 2.7995 8.74749 2.83895 8.91926C2.87839 9.09103 2.96649 9.2478 3.0927 9.37081L6.95701 13.1379L5.59033 19.0559C5.54883 19.235 5.56213 19.4225 5.62851 19.594C5.69488 19.7655 5.81126 19.913 5.96255 20.0175C6.11383 20.1221 6.29304 20.1787 6.47692 20.1801C6.66079 20.1815 6.84084 20.1276 6.9937 20.0254L11.988 16.6958L16.9824 20.0254C17.1386 20.1291 17.3229 20.1825 17.5104 20.1784C17.6979 20.1743 17.8796 20.1129 18.0311 20.0024C18.1827 19.8919 18.2968 19.7377 18.358 19.5604C18.4193 19.3832 18.4248 19.1914 18.3738 19.0109L16.6962 13.1406L20.8568 9.39649C21.1292 9.15067 21.2292 8.76727 21.1118 8.41964Z" fill="#F3CD03"/>
</svg>
