<svg width="23" height="23" viewBox="0 0 23 23" fill="none" xmlns="http://www.w3.org/2000/svg">
<path d="M20.1367 8.41964C20.079 8.24983 19.9729 8.10061 19.8314 7.99043C19.6899 7.88024 19.5193 7.81389 19.3405 7.79959L14.1114 7.38408L11.8485 2.37506C11.7765 2.21373 11.6593 2.07671 11.511 1.98052C11.3628 1.88434 11.1899 1.8331 11.0132 1.83301C10.8365 1.83291 10.6636 1.88395 10.5153 1.97998C10.3669 2.076 10.2496 2.2129 10.1773 2.37415L7.91452 7.38408L2.68537 7.79959C2.50968 7.8135 2.34172 7.87774 2.20158 7.98462C2.06144 8.0915 1.95506 8.23648 1.89517 8.40224C1.83527 8.56799 1.8244 8.74749 1.86385 8.91926C1.9033 9.09103 1.99139 9.2478 2.11761 9.37081L5.98191 13.1379L4.61523 19.0559C4.57374 19.235 4.58704 19.4225 4.65341 19.594C4.71978 19.7655 4.83616 19.913 4.98745 20.0175C5.13874 20.1221 5.31794 20.1787 5.50182 20.1801C5.68569 20.1815 5.86574 20.1276 6.0186 20.0254L11.0129 16.6958L16.0073 20.0254C16.1635 20.1291 16.3478 20.1825 16.5353 20.1784C16.7228 20.1743 16.9045 20.1129 17.056 20.0024C17.2076 19.8919 17.3217 19.7377 17.3829 19.5604C17.4442 19.3832 17.4497 19.1914 17.3987 19.0109L15.7211 13.1406L19.8817 9.39649C20.1541 9.15067 20.2541 8.76727 20.1367 8.41964Z" fill="#F3CD03"/>
</svg>
