<svg width="16" height="16" viewBox="0 0 16 16" fill="none" xmlns="http://www.w3.org/2000/svg">
<g clip-path="url(#clip0_1_336)">
<path d="M15.8333 13.8332H1.5V0.833171C1.5 0.741504 1.425 0.666504 1.33333 0.666504H0.166667C0.075 0.666504 0 0.741504 0 0.833171V15.1665C0 15.2582 0.075 15.3332 0.166667 15.3332H15.8333C15.925 15.3332 16 15.2582 16 15.1665V13.9998C16 13.9082 15.925 13.8332 15.8333 13.8332ZM3 12.4998H14.1667C14.2583 12.4998 14.3333 12.4248 14.3333 12.3332V3.24984C14.3333 3.09984 14.1521 3.02692 14.0479 3.13109L9.66667 7.51234L7.05417 4.929C7.02284 4.89799 6.98054 4.88059 6.93646 4.88059C6.89238 4.88059 6.85007 4.89799 6.81875 4.929L2.88125 8.879C2.86596 8.89433 2.85385 8.91252 2.84562 8.93255C2.8374 8.95257 2.83322 8.97402 2.83333 8.99567V12.3332C2.83333 12.4248 2.90833 12.4998 3 12.4998Z" fill="#40BB15"/>
</g>
<defs>
<clipPath id="clip0_1_336">
<rect width="16" height="14.6667" fill="white" transform="translate(0 0.666504)"/>
</clipPath>
</defs>
</svg>
